<?xml version="1.0" encoding="UTF-8" standalone="no"?>
<!-- Created with Inkscape (http://www.inkscape.org/) -->

<svg
   xmlns:dc="http://purl.org/dc/elements/1.1/"
   xmlns:cc="http://creativecommons.org/ns#"
   xmlns:rdf="http://www.w3.org/1999/02/22-rdf-syntax-ns#"
   xmlns:svg="http://www.w3.org/2000/svg"
   xmlns="http://www.w3.org/2000/svg"
   xmlns:sodipodi="http://sodipodi.sourceforge.net/DTD/sodipodi-0.dtd"
   xmlns:inkscape="http://www.inkscape.org/namespaces/inkscape"
   id="svg831"
   sodipodi:docname="studio_bcard_black.svg"
   viewBox="0 0 301.15439 85.786098"
   version="1.1"
   inkscape:version="0.48.5 r10040"
   width="100%"
   height="100%">
  <defs
     id="defs833">
    <linearGradient
       id="linearGradient4213"
       spreadMethod="reflect"
       gradientUnits="userSpaceOnUse"
       y1="95.445"
       gradientTransform="translate(615.12,570.98)"
       x2="0"
       y2="63.794998">
      <stop
         id="stop12"
         stop-color="#8c8b15"
         offset="0" />
      <stop
         id="stop14"
         stop-color="#ffff95"
         offset="1" />
    </linearGradient>
    <linearGradient
       id="linearGradient3437"
       spreadMethod="reflect"
       gradientUnits="userSpaceOnUse"
       y1="510.16"
       gradientTransform="translate(598.26,155.4)"
       x2="0"
       y2="486.67001">
      <stop
         id="stop7"
         stop-color="#008700"
         offset="0" />
      <stop
         id="stop9"
         stop-color="#00f900"
         offset="1" />
    </linearGradient>
  </defs>
  <sodipodi:namedview
     id="base"
     fit-margin-left="0"
     inkscape:zoom="1"
     height="0px"
     borderopacity="1.0"
     inkscape:current-layer="layer1"
     inkscape:cx="241.32718"
     inkscape:cy="-3.8379959"
     fit-margin-right="0"
     inkscape:window-maximized="1"
     showgrid="false"
     width="0px"
     inkscape:document-units="px"
     bordercolor="#666666"
     inkscape:window-x="1920"
     inkscape:window-y="139"
     fit-margin-bottom="0"
     inkscape:window-width="1920"
     inkscape:pageopacity="0.0"
     inkscape:pageshadow="2"
     pagecolor="#ffffff"
     inkscape:window-height="1061"
     fit-margin-top="0" />
  <g
     id="layer1"
     inkscape:label="Layer 1"
     inkscape:groupmode="layer"
     transform="translate(-615.1336,-623.77)">
    <path
       id="path22"
       style="fill:#000000;fill-opacity:1;stroke:none"
       inkscape:connector-curvature="0"
       d="m 619.54,623.77 -0.2188,13.062 c -0.1085,7.1888 -0.3789,14.371 -0.625,15.969 -0.2461,1.5975 -0.5238,4.1191 -0.5938,5.5938 -0.0699,1.4746 -0.1867,-0.4406 -0.2812,-4.25 l -0.1875,-6.9375 -0.25,4.7188 -0.25,4.6875 -0.3438,-4.25 c -0.1866,-2.3348 -0.4742,-6.0693 -0.6562,-8.2812 l -0.3438,-4 -0.2188,4.6875 c -0.1454,-0.6742 -0.2905,-1.3097 -0.4375,-1.875 v 38.031 c 0.1068,-0.4102 0.2038,-0.7325 0.3125,-1.1562 0.1708,0.1708 0.4369,3.5757 0.5938,7.5625 l 0.2812,7.25 0.1562,-7.5938 c 0.0804,-4.1781 0.2489,-6.8915 0.375,-6.0312 l 0.2188,1.5625 0.3125,-1.5625 c 0.2874,-1.4474 0.3086,-1.3682 0.4375,0.9062 0.139,2.4512 0.1524,2.4364 0.4375,-0.9062 0.1761,-2.0652 0.3593,1.9638 0.4688,10.5 l 0.1875,13.844 0.25,-8.7188 c 0.1406,-4.8486 0.2897,-6.8625 0.3438,-4.5625 0.0562,2.393 0.2726,4.125 0.5312,4.125 0.2458,0 0.506,1.0534 0.5625,2.3438 0.0715,-0.7824 0.2331,-5.8787 0.3438,-12.844 l 0.25,-15.188 0.0938,19.562 0.0938,19.531 h 0.4375 l 0.0625,-15.062 h 0.0312 c 0.0376,-9.0211 0.1718,-14.095 0.375,-12.625 0.1869,1.3517 0.3889,4.5444 0.4375,7.125 0.0486,2.5806 0.2506,5.8045 0.4375,7.1562 0.2712,1.9616 0.3425,1.1402 0.4375,-4.0312 0.0655,-3.5637 0.2657,-9.3738 0.4375,-12.938 l 0.3125,-6.5 0.1875,5.8125 0.1562,5.8125 0.2812,-5.8125 c 0.2058,-4.522 0.2975,-2.7655 0.4062,7.8438 0.1782,17.378 0.7419,22.997 0.9062,8.9375 0.0646,-5.5298 0.2506,-9.679 0.4062,-9.1875 0.1557,0.4915 0.3926,-0.8172 0.5312,-2.9062 0.1854,-2.793 0.3045,-1.2522 0.4375,5.8125 0.1514,8.041 0.1963,8.643 0.3125,3.6875 0.0806,-3.436 0.3107,-5.9062 0.5625,-5.9062 0.2544,0 0.4716,-2.2597 0.5,-5.4688 0.0267,-3.0107 0.192,-6.6816 0.375,-8.1562 0.2867,-2.3108 0.365,-1.8555 0.5,3.3438 0.1255,4.834 0.1919,5.2979 0.3125,2.3438 0.0828,-2.0276 0.3353,-3.6875 0.5625,-3.6875 0.2272,0 0.4516,2.0746 0.5312,4.5938 l 0.1562,4.5625 0.1562,-5.3438 0.1875,-5.375 0.3125,3.3438 c 0.1739,1.8433 0.3707,8.4828 0.4375,14.75 0.1096,10.285 0.1654,10.936 0.5,6.5 0.5298,-7.0235 0.6768,-7.6752 0.8438,-3.375 0.1272,3.276 0.1698,3.4896 0.375,1.5625 0.2352,-2.2078 0.2632,-2.1867 0.5312,1.125 0.1687,2.0843 0.3267,-1.295 0.4375,-8.9375 l 0.1875,-12.281 0.25,9.1562 0.25,9.1562 0.1875,-12.062 c 0.1527,-9.3553 0.2384,-10.534 0.3438,-5.25 0.0804,4.0306 0.3051,6.8125 0.5625,6.8125 0.2394,0 0.4375,-1.0888 0.4375,-2.4062 0,-3.2374 0.4964,-6.5312 0.9688,-6.5312 0.2124,0 0.375,0.6065 0.375,1.3438 0,2.3726 0.8827,1.4307 0.9375,-1 0.1131,-5.0197 0.6824,-5.2 1.0938,-0.3438 l 0.375,4.6875 0.5312,-4.6875 c 0.4924,-4.4994 0.4967,-4.1232 0.6562,9.375 l 0.1875,14.094 0.25,-14.094 0.2188,-14.062 0.2188,11.844 c 0.1741,10.632 0.2012,11.229 0.4375,5.8125 l 0.2812,-6.0312 0.1875,7.1562 0.1875,7.125 0.25,-8.4688 0.25,-8.5 0.1562,10.719 c 0.134,8.6576 0.2309,10.004 0.5,6.9375 0.1833,-2.089 0.3935,-6.3341 0.4688,-9.4062 l 0.1562,-5.5625 0.25,6.25 c 0.1441,3.4408 0.2929,5.0302 0.3438,3.5312 0.157,-4.6312 0.6551,-9.5939 0.9375,-9.3125 0.1479,0.1474 0.3965,5.3143 0.5312,11.5 l 0.25,11.25 0.125,-15.406 c 0.1434,-18.178 0.8132,-22.395 1,-6.25 l 0.125,10.938 0.25,-7.5938 c 0.1057,-3.1336 0.2546,-5.224 0.3438,-5.5 0.0172,0.0339 0.05,0.1553 0.0625,0.375 0.1125,1.9772 0.2122,2.2113 0.5,1.3125 0.1968,-0.6144 0.3817,-2.1041 0.4062,-3.3125 0.0604,-2.9764 0.4744,-2.3422 0.9062,1.375 l 0.3438,3.0625 0.1562,-3.3438 c 0.1232,-2.7426 0.1909,-2.2493 0.4062,2.6875 0.2483,5.6918 0.296,5.4313 0.4688,-4.6875 0.1649,-9.6604 0.1865,-10.17 0.4062,-4.9375 0.1341,3.195 0.3804,5.3019 0.5312,4.6875 0.2595,-1.0569 0.2862,-1.045 0.3438,-0.0937 0.0335,0.553 0.2234,1 0.4375,1 0.2141,0 0.5738,1.0534 0.7812,2.3438 l 0.375,2.3438 0.25,-3.3438 0.2812,-3.3438 0.1562,3.3438 c 0.1481,3.0422 0.1948,3.1295 0.3438,1 0.0903,-1.2903 0.3296,-2.3438 0.5625,-2.3438 0.2329,0 0.4587,-1.564 0.5,-3.4688 l 0.0938,-3.4688 0.2812,2.6875 0.3125,2.6875 0.0625,-2.5625 c 0.0413,-1.4132 0.2671,-2.5625 0.5,-2.5625 0.2329,0 0.5035,-1.0535 0.5938,-2.3438 0.0903,-1.2903 0.2434,3.5623 0.3438,10.812 l 0.1875,13.188 0.25,-10.938 0.25,-10.969 0.1875,10.969 c 0.0981,5.592 0.1564,8.2032 0.2188,8.5312 0.0474,-0.28 0.1285,-1.6184 0.2188,-3.8438 l 0.25,-6.25 0.25,4.6875 0.2188,4.6875 0.1562,-6.25 c 0.0836,-3.4408 0.2983,-9.2822 0.4688,-12.969 0.2782,-6.0145 0.3119,-5.2189 0.4688,7.8125 0.1584,13.158 0.2129,13.804 0.4375,6.7188 l 0.25,-7.8125 0.2188,5.3438 0.2188,5.375 0.1562,-6.0313 c 0.0895,-3.8414 0.2722,-5.6489 0.5,-4.9375 0.2401,0.7497 0.4091,-0.4137 0.5,-3.5625 l 0.125,-4.6875 0.1562,3.6875 c 0.0828,2.0276 0.3267,3.6875 0.5625,3.6875 0.2358,0 0.4375,-0.6064 0.4375,-1.3438 0,-0.7373 0.1917,-1.3438 0.4375,-1.3438 0.2458,0 0.4688,0.6065 0.4688,1.3438 0,0.7373 0.1713,1.3438 0.4062,1.3438 0.235,0 0.5089,-1.4682 0.5938,-3.25 0.0138,-0.2895 0.0457,-0.425 0.0625,-0.4688 0.0831,0.37 0.2061,3.1339 0.2812,7.2812 0.1391,7.6699 0.2304,9.0026 0.4062,5.5938 l 0.2188,-4.4688 0.25,6.0312 0.2812,6.0312 0.1875,-8.7188 0.1562,-8.7188 0.2812,7.1562 0.25,7.1562 0.0938,-9.2812 c 0.0593,-5.8206 0.2507,-9.25 0.5312,-9.25 0.2775,0 0.4781,2.6607 0.5,7.0312 0.0396,7.8908 0.5753,7.8238 1.125,-0.125 0.2533,-3.6635 0.43,-4.5094 0.6562,-3.3438 0.2629,1.3545 0.2928,1.2253 0.3438,-1 0.0324,-1.4132 0.2393,-2.5625 0.4688,-2.5625 0.2294,0 0.5226,-0.5741 0.625,-1.25 0.1024,-0.6759 0.2132,3.3295 0.25,8.9062 0.041,6.2032 0.2266,10.268 0.5,10.438 0.2893,0.1788 0.4688,-1.8201 0.4688,-5.6562 0,-6.3866 0.7239,-7.6325 1,-1.7188 0.0861,1.843 0.2444,-0.3907 0.3438,-4.9375 l 0.1562,-8.25 0.25,6.0312 0.25,6.0312 0.375,-4.125 c 0.3135,-3.5146 0.4438,-4.0562 0.9688,-3.5312 0.3884,0.3884 0.6848,1.9442 0.7812,4.1562 0.023,0.5274 0.0385,0.8148 0.0625,0.9062 0.0639,-0.1472 0.162,-1.7193 0.2188,-4.5625 0.1544,-7.729 0.769,-7.729 0.9375,0 0.1206,5.5308 0.7614,4.1694 0.9375,-2 l 0.125,-4.25 0.3125,6.0312 c 0.1746,3.3179 0.3854,9.0634 0.4688,12.75 0.0608,2.6901 0.117,4.2404 0.1562,4.5 0.0509,-0.4259 0.1274,-2.931 0.25,-7.875 l 0.25,-10.031 0.1875,15.406 0.2188,15.406 0.2188,-16.531 0.25,-16.531 0.1562,14.312 0.1875,14.281 0.375,-8 c 0.2006,-4.3998 0.451,-8.1989 0.5625,-8.4688 0.1059,0.1602 0.2528,2.2022 0.3125,4.875 l 0.125,5.3438 0.25,-4.0312 c 0.1257,-1.9121 0.2153,-2.8887 0.2812,-3.0938 0.0542,0.0632 0.1265,0.5818 0.2188,1.5312 0.1314,1.3517 0.3157,-1.7451 0.4062,-6.9062 0.1249,-7.1199 0.254,-8.5248 0.4688,-5.8125 l 0.2812,3.5625 0.125,-3.5625 c 0.1662,-4.4063 0.7619,-2.7687 0.9688,2.6875 0.0561,1.4802 0.0906,2.2485 0.125,2.4062 0.0268,-0.1124 0.0828,-0.5493 0.125,-1.3125 0.2373,-4.2927 0.6556,-7.125 1.0312,-7.125 0.2002,0 0.5704,1.1493 0.8125,2.5625 l 0.4375,2.5625 0.0625,-3.6875 c 0.033,-2.1216 0.2428,-3.6875 0.5,-3.6875 0.255,0 0.483,1.584 0.5312,3.6875 0.0352,1.5355 0.0568,2.3351 0.0938,2.5 0.0328,-0.0625 0.1017,-0.5055 0.1562,-1.375 0.0887,-1.4132 0.3418,-2.5625 0.5625,-2.5625 0.2207,0 0.4722,-1.0535 0.5625,-2.3438 0.0903,-1.2903 0.2074,4.9669 0.2812,13.938 l 0.125,16.312 0.625,-5.3438 c 0.7383,-6.4325 0.9456,-7.1264 1.125,-3.5938 0.0749,1.4746 0.2715,-2.835 0.4062,-9.5938 l 0.25,-12.281 0.1562,13.156 c 0.1809,14.112 0.7162,13.865 0.9375,-0.4375 0.0632,-4.0837 0.1178,-5.9311 0.1875,-6.0625 0.0518,0.1653 0.1461,1.0788 0.25,2.5938 0.3588,5.232 0.875,6.2528 0.875,1.6875 0,-1.8023 0.1594,-3.1213 0.3438,-2.9375 0.1843,0.1838 0.4567,4.3869 0.5938,9.3438 0.087,3.1469 0.141,5.0376 0.1875,5.4062 0.0615,-0.4337 0.1386,-4.2 0.2188,-12.25 l 0.1562,-15.875 0.3125,9.5312 c 0.3135,9.3168 0.7988,12.884 0.9688,7.1875 0.0284,-0.9509 0.0626,-1.5108 0.0937,-1.6562 0.0509,0.1002 0.1517,1.0369 0.2812,3.0312 l 0.25,4.25 0.1875,-4.6875 0.1562,-4.6875 0.2812,3.3438 c 0.2697,3.1625 0.3094,3.0129 0.4688,-2.4688 l 0.1562,-5.8125 0.25,4.9375 c 0.2464,4.9076 0.2414,4.8913 0.6875,2.4375 0.3916,-2.1539 0.4786,-1.4097 0.6875,6.0312 l 0.25,8.5 0.1562,-12.062 c 0.1505,-12.134 0.7023,-14.32 0.9688,-3.8125 0.1044,4.1181 0.1676,4.7635 0.2812,2.375 0.0848,-1.7818 0.3587,-3.25 0.5938,-3.25 0.235,0 0.4062,0.3835 0.4062,0.875 0,0.4915 0.2046,0.9062 0.4375,0.9062 0.2329,0 0.5035,-1.0534 0.5938,-2.3438 0.13,-1.8583 0.195,-1.5712 0.3125,1.4375 l 0.1562,3.8125 0.3125,-2.6875 c 0.183,-1.4746 0.3856,-4.188 0.4375,-6.0312 l 0.0937,-3.3438 0.5938,2.6875 c 0.3327,1.4746 0.6525,5.4967 0.6875,8.9375 0.0351,3.4408 0.3158,9.5698 0.625,13.625 l 0.5625,7.375 0.125,-12.969 c 0.0658,-7.1273 0.2351,-16.576 0.4062,-21 0.2595,-6.7042 0.3465,-4.5366 0.5,12.969 l 0.1875,21 0.25,-18.781 0.2188,-18.75 0.1875,16.531 c 0.1017,9.0935 0.3196,15.031 0.4688,13.188 0.268,-3.3117 0.2648,-3.3328 0.5,-1.125 0.0253,0.2374 0.0666,0.3354 0.0937,0.3438 0.1101,-0.2547 0.2431,-2.2109 0.3125,-5.25 0.0702,-3.0721 0.1955,-5.0473 0.2812,-5.1562 0.0128,0.0567 0.0199,0.1825 0.0313,0.3438 0.3202,4.5765 1.0109,2.2992 1.0938,-3.5938 0.0797,-5.6754 0.1062,-5.7658 0.375,-2.125 0.1542,2.0891 0.3292,3.1738 0.375,2.375 0.0458,-0.7987 0.2855,-1.4688 0.5312,-1.4688 0.2458,0 0.4607,-1.0534 0.5,-2.3438 0.0489,-1.608 0.1265,-1.9017 0.25,-0.9062 0.105,0.8459 0.4551,1.4688 0.8125,1.4688 0.3575,0 0.6763,-0.6228 0.7812,-1.4688 0.004,-0.0299 0.0273,-0.0471 0.0313,-0.0625 0.0932,0.407 0.2235,4.5162 0.2812,10 0.066,6.2672 0.2439,12.588 0.4062,14.062 0.2802,2.5451 0.3169,2.4094 0.625,-2.4688 0.1785,-2.8264 0.3587,-7.2319 0.4062,-9.8125 l 0.0937,-4.6875 0.2812,4 c 0.1529,2.2119 0.3353,3.5207 0.4062,2.9062 l 0.125,-1.0938 0.3438,1.0938 c 0.2669,0.8334 0.3992,0.3337 0.5,-2 0.1076,-2.491 0.1947,-1.9795 0.4062,2.4688 0.2369,4.9806 0.2783,4.426 0.4062,-4.9375 0.1478,-10.821 0.6954,-16.478 0.9375,-9.5938 l 0.125,3.5625 0.3125,-2.4375 c 0.2613,-2.132 0.3289,-2.263 0.4688,-0.9062 0.0166,0.1613 0.0391,0.2471 0.0625,0.25 0.1007,-0.1858 0.2635,-1.5661 0.375,-3.5938 0.2022,-3.6781 0.3041,-1.614 0.4375,8.25 0.1396,10.326 0.2283,12.044 0.4375,7.8438 l 0.2812,-5.375 0.1875,4.4688 c 0.1833,4.467 0.1777,4.4505 0.4375,-2.25 l 0.25,-6.6875 0.1875,7.5938 0.1875,7.5938 0.25,-9.8125 c 0.2036,-8.0126 0.2947,-8.7633 0.375,-3.9375 0.1186,7.1291 0.9424,8.1745 1.0625,1.3438 l 0.0625,-4.5625 0.3125,3.3438 0.2812,3.3438 0.0625,-2.5938 c 0.0495,-1.5988 0.256,-2.4826 0.5312,-2.3125 0.2832,0.175 0.4688,-0.9998 0.4688,-3.1875 0,-1.8987 0.093,-3.3445 0.2188,-3.2188 0.1257,0.1258 0.3827,1.7113 0.5938,3.5312 0.3759,3.2418 0.4119,3.2776 0.4688,0.9062 0.1288,-5.3765 0.5013,-1.26 1.1562,12.281 0.3796,7.8487 0.7559,14.569 0.8438,14.938 0.0879,0.3687 0.2587,-7.1649 0.3438,-16.75 l 0.1562,-17.406 0.2188,15.188 c 0.1327,8.3562 0.3298,13.272 0.4375,10.938 0.0804,-1.744 0.1387,-2.7622 0.1875,-2.9062 0.0603,0.2843 0.1513,1.9297 0.2812,5.1562 0.2223,5.5214 0.2758,4.4294 0.4375,-7.375 0.1889,-13.791 0.1853,-13.828 0.4375,-5.375 l 0.2812,8.5 0.125,-9.8125 c 0.154,-10.223 0.807,-11.13 0.9688,-1.3438 0.0447,2.7035 0.2297,6.3109 0.4062,8.0312 0.3003,2.9255 0.325,2.7554 0.4375,-2.4688 0.0662,-3.0721 0.2902,-7.4777 0.4688,-9.8125 l 0.3125,-4.25 0.1562,4.6875 c 0.0695,1.9619 0.1111,3.0613 0.1562,3.2188 0.0563,-0.2758 0.152,-1.9795 0.2812,-5.4375 l 0.25,-6.9375 0.1562,8.25 0.1562,8.2812 0.7812,-7.1562 0.7812,-7.1562 0.125,4.9375 c 0.1443,4.8118 0.1651,4.8276 0.3125,1.2188 0.1094,-2.678 0.3219,-3.6875 0.75,-3.6875 0.3558,0 0.759,-0.9274 1.0312,-2.3438 0.3731,-1.9406 0.4653,-0.6973 0.5625,7.25 0.0679,5.549 0.2473,8.9658 0.4375,8.0625 0.2497,-1.1861 0.3817,-0.6125 0.4688,2.4375 0.1082,3.7918 0.1289,3.9271 0.5312,2.0312 0.2347,-1.106 0.5701,-5.6386 0.75,-10.062 l 0.3438,-8.0312 0.125,7.5938 c 0.1774,9.961 0.8323,7.1819 1,-4.25 0.0908,-6.1969 0.1431,-7.0184 0.25,-3.25 0.0805,2.8418 0.3494,5.0312 0.5938,5.0312 0.2377,0 0.4062,-0.4147 0.4062,-0.9062 0,-0.4915 0.223,-0.875 0.4688,-0.875 0.2785,0 0.4698,3.1529 0.5312,8.375 l 0.0937,8.375 0.25,-9.8125 0.25,-9.8438 0.1875,9.375 c 0.0809,3.9361 0.1821,6.009 0.25,6.25 0.0312,-0.1114 0.0651,-0.6094 0.0937,-1.5312 0.0802,-2.5718 0.3417,-4.8011 0.5625,-4.9375 0.2208,-0.1364 0.5863,-2.7451 0.8125,-5.8125 l 0.4062,-5.5938 0.1562,4.9375 0.1562,4.9062 0.25,-6.0312 0.2812,-6.0312 0.1875,4.6875 0.1875,4.6875 0.25,-5.8125 0.25,-5.8125 0.0937,5.7188 c 0.0551,3.4395 0.2927,5.6875 0.5625,5.6875 0.2458,0 0.4639,-1.0534 0.5,-2.3438 l 0.0625,-2.3438 0.3438,2.6875 c 0.183,1.4746 0.3963,4.188 0.4688,6.0312 l 0.125,3.3438 0.2812,-3.8125 0.2815,-3.7812 0.125,3.7812 0.1562,3.8125 0.5625,-4.6875 c 0.4783,-4.1423 0.5458,-4.4198 0.6562,-2.25 0.1604,3.1515 0.3849,1.9435 0.8438,-4.4688 0.2998,-4.1898 0.3859,-2.1106 0.5,11.188 0.1015,11.833 0.241,14.972 0.4688,11.406 0.1726,-2.7035 0.3675,-5.8315 0.4375,-6.9375 0.0423,-0.6684 0.0845,-1.0637 0.125,-1.1562 0.0636,0.09 0.1613,0.8083 0.3125,2.2812 0.1766,1.7204 0.4126,5.3278 0.5,8.0312 0.0109,0.3379 0.0177,0.5553 0.0313,0.6562 0.0944,-0.4794 0.2414,-5.1103 0.3438,-12.062 l 0.25,-16.312 0.1562,15.219 0.1562,15.188 0.625,-8.5 c 0.7073,-10.071 0.9704,-12.281 1.5312,-12.281 0.2307,0 0.4495,-1.0535 0.5,-2.3438 0.0505,-1.2903 0.2303,0.3696 0.375,3.6875 l 0.25,6.0312 0.1562,-7.375 c 0.119,-5.3287 0.2511,-6.6825 0.4688,-4.9062 l 0.3125,2.4375 0.1562,-2.4375 0.1562,-2.4688 0.2188,2.4688 0.25,2.4375 0.2812,-3.125 c 0.0969,-1.1005 0.1674,-1.7659 0.2188,-1.9062 0.0664,0.1596 0.1305,1.4522 0.2188,4.1562 0.1748,5.3578 0.183,5.3493 0.4375,-2.6875 0.2342,-7.3952 0.2544,-6.8124 0.4375,7.1562 l 0.2188,15.188 0.2188,-15.875 0.25,-15.844 0.0937,14.688 c 0.0568,8.0899 0.203,14.641 0.3125,14.531 0.511,-0.511 1.2599,-7.1279 1.5625,-13.812 l 0.3438,-7.375 0.1562,7.375 0.1562,7.375 0.2812,-8.5 0.25,-8.5 0.1562,9.4062 0.1562,9.375 0.5,-6.9375 c 0.3941,-5.7166 0.5251,-6.4972 0.75,-4.4688 l 0.25,2.4688 0.1875,-2.4688 c 0.0917,-1.3517 0.2638,0.6593 0.4062,4.4688 0.2538,6.7887 0.2806,6.7 0.4688,-4.6875 l 0.1875,-11.625 0.25,9.4062 c 0.138,5.1612 0.3278,7.7786 0.4062,5.8125 0.2002,-5.0214 0.8173,-6.8127 0.875,-2.5 0.0686,5.1248 0.8847,3.3143 1.2812,-2.875 l 0.3438,-5.375 0.25,3.5938 0.25,3.5625 0.125,-3.3438 c 0.0695,-1.8433 0.2629,-3.8543 0.4375,-4.4688 0.3065,-1.0785 0.3274,-1.0497 0.625,0.4062 0.1695,0.8295 0.3561,2.8405 0.4062,4.4688 0.0159,0.5159 0.0654,0.7664 0.0937,0.8125 0.0686,-0.2001 0.1811,-1.4868 0.2812,-3.6875 l 0.25,-5.8125 0.1875,7.1562 0.1875,7.1562 0.25,-6.0312 c 0.2496,-5.7208 0.2693,-5.8207 0.4375,-2.2188 l 0.1875,3.7812 0.2812,-4.25 c 0.2198,-3.3832 0.3064,-2.2003 0.4375,5.8125 0.1136,6.9434 0.2379,9.0977 0.4375,6.9375 0.2001,-2.1656 0.3627,-0.1188 0.4688,6.6875 l 0.125,9.8438 0.3438,-14.656 c 0.1737,-8.0588 0.4397,-14.784 0.5938,-14.938 0.154,-0.154 0.322,3.8259 0.375,8.8438 l 0.0937,9.125 0.2188,-8.2812 0.25,-8.25 0.3438,6.875 c 0.1843,3.7871 0.3667,8.6073 0.4062,10.719 0.0469,2.5039 0.252,0.5893 0.5938,-5.5312 0.3534,-6.3294 0.565,-8.2917 0.6562,-6.0312 0.1615,4.0004 0.3456,3.2388 0.8438,-3.3438 l 0.375,-4.9375 0.125,3.5938 c 0.0682,1.9662 0.2327,3.0519 0.375,2.4375 0.1921,-0.8294 0.3562,-0.4808 0.5625,1.3438 0.2363,2.0901 0.2926,1.7715 0.4062,-2.2188 0.0736,-2.5806 0.206,-4.2405 0.3125,-3.6875 0.1065,0.553 0.3963,1 0.625,1 0.2287,0 0.4364,0.67 0.4688,1.4688 l 0.0625,1.4375 0.2812,-1.5625 c 0.165,-0.8602 0.4889,3.5964 0.6875,9.9062 0.5401,17.163 1.0208,16.584 1.1875,-1.4062 l 0.1562,-15.875 0.25,12.75 0.25,12.719 0.1875,-11.625 0.1875,-11.594 0.25,10.031 c 0.164,6.9762 0.3362,9.5333 0.5938,8.3125 0.4509,-2.1378 1.146,-10.714 1.2812,-15.906 l 0.0937,-3.7812 0.2812,4.9062 c 0.2003,3.6439 0.3184,4.2907 0.4375,2.4688 0.1407,-2.1523 0.1845,-1.9364 0.4688,1.7812 0.1785,2.3348 0.3475,6.7081 0.375,9.7188 0.0303,3.3181 0.2291,5.4688 0.5,5.4688 0.2785,0 0.5006,-3.1534 0.5625,-8.375 l 0.0937,-8.375 0.25,10.5 c 0.1756,7.4245 0.2966,9.0691 0.4062,5.5938 0.0853,-2.7035 0.2975,-8.5449 0.4688,-12.969 l 0.3125,-8.0625 0.1562,7.1562 0.1875,7.1562 0.25,-6.0312 c 0.1778,-4.0757 0.3247,-5.1552 0.4375,-3.3438 l 0.1562,2.6875 0.3125,-2.6875 c 0.1193,-1.0781 0.1988,-1.702 0.25,-1.8125 0.0532,0.1693 0.0943,1.1658 0.1562,3.1562 0.192,6.1687 0.7569,12.976 0.8438,10.156 0.0624,-2.024 0.1977,-2.3438 0.9688,-2.3438 0.8071,0 0.9062,-0.2883 0.9062,-3.0625 0,-1.6897 0.1282,-3.7643 0.3125,-4.5938 0.3202,-1.4408 0.3432,-1.4105 0.5938,0.9375 0.0465,0.4357 0.1181,0.7005 0.1562,0.7812 0.0929,-0.147 0.1915,-1.5364 0.25,-4.3438 0.1208,-5.7968 0.7196,-6.5107 0.8438,-1 0.0712,3.1584 0.8607,2.9971 1.0625,-0.2188 0.0888,-1.4132 0.2587,2.3536 0.3438,8.375 0.092,6.5114 0.2552,10.048 0.4375,8.7188 0.1797,-1.3101 0.3338,1.7698 0.375,7.4688 l 0.0937,9.7188 h 0.4062 0.4688 c -0.2902,0 -0.4075,-5.3738 -0.375,-15.312 0.0275,-8.4177 0.1965,-17.196 0.375,-19.531 0.0384,-0.5016 0.0599,-0.7297 0.0937,-0.6562 0.1473,0.3184 0.2442,5.9594 0.2812,15.969 0.0473,12.784 -0.0828,19.531 -0.375,19.531 h 0.9062 l 0.0937,-12.188 c 0.0818,-10.66 0.1162,-11.337 0.3438,-5.4688 l 0.25,6.7188 0.1875,-7.375 c 0.1581,-6.5968 0.2179,-6.9921 0.4688,-3.5938 l 0.2812,3.8125 0.1562,-3.8125 0.1562,-3.7812 0.2812,2.9062 0.3125,2.9062 0.125,-2.25 c 0.0747,-1.2289 0.2666,-4.5486 0.4375,-7.375 l 0.3125,-5.125 0.1562,4.25 c 0.073,2.3348 0.2609,5.6546 0.4375,7.375 l 0.3125,3.125 0.125,-4.4688 c 0.0647,-2.4577 0.2567,-6.2881 0.4375,-8.5 l 0.3438,-4.0312 0.0625,3.4688 c 0.0401,1.9637 0.2779,3.4688 0.5312,3.4688 0.2819,0 0.4375,3.0808 0.4375,8.3438 0,4.5877 0.1594,8.1838 0.3438,8 0.1843,-0.1838 0.4258,-4.4827 0.5625,-9.5625 l 0.25,-9.25 0.0937,8.625 c 0.0541,5.3791 0.2518,8.5938 0.5312,8.5938 0.2813,0 0.5018,-3.6015 0.5625,-9.7188 l 0.0937,-9.7188 0.25,8.25 c 0.1509,4.9114 0.3333,7.0146 0.4375,5.1562 l 0.1562,-3.125 0.2812,3.125 c 0.2269,2.4561 0.333,1.4527 0.4688,-4.6875 l 0.1875,-7.8125 0.25,6.9062 0.25,6.9375 0.1875,-9.625 c 0.138,-7.4823 0.2504,-8.7394 0.4688,-5.7812 0.1542,2.0891 0.336,3.0789 0.4062,2.2188 0.1198,-1.4667 0.1332,-1.4852 0.4688,-0.4375 0.1968,0.6144 0.4037,5.02 0.4688,9.8125 0.108,7.9589 0.1446,8.3315 0.4375,4.25 0.1764,-2.4577 0.3956,-6.2881 0.4688,-8.5 l 0.125,-4 0.2812,3.3438 0.3125,3.3438 0.1562,-3.7812 0.1562,-3.8125 0.2812,3.8125 0.2812,3.7812 0.1562,-5.8125 0.1875,-5.8125 0.2812,4.9375 0.25,4.9062 0.0937,-4.8125 c 0.0723,-3.9328 0.2013,-4.7812 0.75,-4.7812 0.5112,0 0.7047,0.6029 0.75,2.5625 0.0583,2.5162 0.0426,2.4799 0.4062,-0.9688 0.2043,-1.9369 0.4869,-3.6119 0.5938,-3.7188 0.1069,-0.1069 0.3095,1.998 0.4688,4.6562 0.4099,6.8419 0.5484,7.5942 0.625,3.375 0.0383,-2.1152 0.2749,-3.6875 0.5312,-3.6875 0.2458,0 0.4338,0.67 0.4375,1.4688 0.005,1.102 0.1088,1.2899 0.4375,0.7812 0.2873,-0.4446 0.4641,2.7765 0.5,9.5938 0.0298,5.6527 0.1942,12.101 0.375,14.312 0.2313,2.8301 0.3794,-0.8348 0.5,-12.312 l 0.1875,-16.312 0.2188,11.844 0.25,11.844 0.2188,-14.062 0.1875,-14.094 0.25,10.75 c 0.1363,5.8985 0.3333,9.41 0.4375,7.8125 0.1581,-2.4243 0.2328,-2.0069 0.4375,2.4688 0.2367,5.1761 0.2561,4.9741 0.6875,-5.5938 l 0.4375,-10.969 0.25,5.8125 c 0.1402,3.3397 0.32,4.788 0.4062,3.375 0.1413,-2.3139 0.1588,-2.3787 0.4688,-0.9062 0.3049,1.4488 0.3417,1.3704 0.4375,-0.9062 0.082,-1.9509 0.1848,-2.2305 0.4688,-1.3438 l 0.3438,1.125 0.0937,-1.125 0.0937,-1.0938 0.3438,1.0938 c 0.284,0.8868 0.3867,0.6384 0.4688,-1.3125 0.0957,-2.2766 0.1326,-2.355 0.4375,-0.9062 l 0.3125,1.5625 0.0625,-1.5312 c 0.0324,-0.8397 0.2219,-1.3717 0.4062,-1.1875 0.1843,0.1842 0.455,4.9936 0.5938,10.688 l 0.25,10.344 0.1875,-15.406 0.1875,-15.406 0.2188,15.406 c 0.2239,14.317 0.2746,14.757 0.4375,6.25 0.0894,-4.6722 0.148,-6.8556 0.2188,-7.125 0.0527,0.1647 0.1208,1.1671 0.2188,2.875 0.3612,6.3007 1.3237,8.4781 1.3438,3.0312 0.0199,-5.4165 0.9086,-4.6679 1.0312,0.875 0.0558,2.5192 0.2095,-1.2476 0.3438,-8.375 l 0.25,-12.938 0.1562,9.375 0.1562,9.375 0.5625,-4.9062 0.5312,-4.9062 0.1562,10.938 0.1562,10.938 0.25,-9.375 c 0.2479,-9.2718 0.2526,-9.3042 0.4375,-3.3438 l 0.1875,6.0312 0.2812,-5.1562 c 0.1291,-2.4692 0.2035,-3.7176 0.25,-3.9062 0.0365,0.0647 0.0564,0.9188 0.0937,2.4688 0.1294,5.3534 0.9624,4.6396 1.0625,-0.9062 0.0621,-3.4393 0.1418,-3.9705 0.3125,-2.125 l 0.25,2.4688 0.2812,-2.4688 0.2812,-2.4375 0.0937,2.9062 c 0.0542,1.5975 0.2654,3.7044 0.4688,4.6875 0.2773,1.3406 0.4199,0.1722 0.5312,-4.6875 l 0.125,-6.5 0.2812,8.7188 0.25,8.7188 0.1562,-6.9375 c 0.0869,-3.8095 0.2372,-6.4592 0.3438,-5.9062 0.4231,2.1965 1.0312,0.8209 1.0312,-2.3438 0,-2.6811 0.12,-3.3438 0.6562,-3.3438 0.5488,0 0.6777,0.8485 0.75,4.7812 l 0.0937,4.8125 0.25,-4.9062 0.25,-4.9375 0.3438,3.8125 c 0.1829,2.089 0.3799,7.4199 0.4375,11.844 0.0816,6.2631 0.1548,4.9292 0.3438,-6.0312 l 0.25,-14.094 0.1562,14.094 c 0.0986,7.7418 0.3181,12.754 0.4688,11.156 0.2924,-3.1015 0.6267,-2.9022 1.2188,0.6875 0.2558,1.551 0.4386,-1.723 0.5938,-10.719 0.2394,-13.886 0.8482,-14.899 0.9375,-1.5625 l 0.0313,7.8125 0.5938,-4.25 c 0.3289,-2.3348 0.657,-4.4417 0.7188,-4.6875 0.0747,0.2372 0.2441,1.992 0.375,4.25 l 0.2812,4.6875 0.1875,-6.0312 c 0.1554,-5.5803 0.1731,-5.7877 0.4375,-2.6875 l 0.2812,3.3438 0.125,-2.9062 c 0.073,-1.5975 0.2892,-4.215 0.4688,-5.8125 l 0.3438,-2.9062 0.0937,2.4688 c 0.1993,4.3475 0.8292,5.1012 0.9375,1.125 0.1698,-6.2294 0.746,-1.6195 0.9062,7.1562 l 0.1562,8.0312 0.25,-6.9375 0.2812,-6.9062 0.1875,10.5 c 0.1445,8.3619 0.2084,9.5487 0.4062,5.8125 0.137,-2.5868 0.3805,-4.2097 0.5312,-3.5938 0.1504,0.6144 0.3395,-2.2907 0.4062,-6.4688 0.0668,-4.1781 0.2369,-10.02 0.4062,-12.969 0.2598,-4.5244 0.3547,-3.3403 0.5,7.5938 0.1568,11.792 0.2019,12.334 0.4375,6.0312 0.1963,-5.2516 0.274,-6.1036 0.4062,-3.5625 l 0.1875,3.3438 0.2812,-3.3438 0.2812,-3.3438 0.1875,2.4375 c 0.1077,1.5359 0.273,0.2075 0.4375,-3.5625 0.2333,-5.3474 0.2687,-4.6636 0.4375,6.0312 l 0.1875,12.062 0.25,-9.8125 0.25,-9.8438 0.2188,14.062 0.1875,14.094 0.25,-17.438 c 0.1162,-8.4661 0.1946,-12.535 0.25,-13.062 0.0375,0.4464 0.0746,2.5576 0.125,6.125 0.1592,11.267 0.7712,16.196 1,8.0625 l 0.125,-4.6875 0.25,4.6875 c 0.2012,3.8125 0.3254,4.3586 0.5938,2.9062 0.1816,-0.9831 0.3411,-3.1281 0.3438,-4.75 0.003,-1.6219 0.1174,-4.5311 0.2812,-6.4688 0.2944,-3.4833 0.3194,-3.5077 0.875,-1.9688 0.309,0.8561 0.575,2.5201 0.5938,3.6875 0.0241,1.5069 0.2114,2.125 0.6562,2.125 0.841,0 1.5842,-2.3031 1.6562,-5.0938 0.0555,-2.1497 0.0958,-2.1938 0.4062,-0.7188 0.2652,1.2602 0.3322,0.9192 0.4062,-1.7812 0.0505,-1.8433 0.272,-4.269 0.4688,-5.375 0.2141,-1.2032 0.4018,5.1795 0.4688,15.875 0.067,10.6955 0.2546,17.047 0.4688,15.844 0.1968,-1.106 0.3887,-4.011 0.4375,-6.4688 0.0488,-2.4577 0.2297,-5.8734 0.4062,-7.5938 l 0.3125,-3.125 0.1875,3.7812 c 0.1055,2.3811 0.249,0.3202 0.4062,-5.5625 l 0.25,-9.4062 0.1562,7.8438 c 0.0798,4.301 0.2879,9.6318 0.4688,11.844 l 0.3125,4 0.125,-5.8125 c 0.1073,-6.2644 1.0715,-12.579 1.4688,-9.5938 0.1194,0.8975 0.2617,-0.0703 0.3438,-2.25 0.0787,-2.089 0.2446,-3.1425 0.3438,-2.3438 0.1093,0.8809 0.4231,1.4688 0.8125,1.4688 0.4995,0 0.6544,-0.8191 0.7188,-3.6875 0.0613,-2.7335 0.1283,-3.0832 0.25,-1.3438 0.0902,1.2903 0.3608,2.3438 0.5938,2.3438 0.2329,0 0.4542,0.67 0.5,1.4688 0.0458,0.7987 0.2208,-0.2547 0.375,-2.3438 0.1953,-2.6453 0.3401,-0.1527 0.4688,8.25 l 0.157,12.062 0.25,-13.188 0.25,-13.188 0.1875,14.094 c 0.1592,11.555 0.2592,12.948 0.4688,7.8125 l 0.25,-6.25 0.2188,6.25 c 0.217,6.0461 0.2424,5.9414 0.375,-3.3438 0.1802,-12.623 0.7709,-16.876 0.9688,-6.9375 0.0848,4.2612 0.2334,6.1523 0.375,4.6875 0.2331,-2.4101 0.2385,-2.3809 0.5,1.3438 l 0.2812,3.8125 0.125,-5.1562 c 0.0908,-3.2871 0.2509,-4.5629 0.4375,-3.5625 l 0.2812,1.5625 0.375,-2 c 1.0087,-5.7266 1.0609,-5.7777 1.2188,-0.9062 0.1323,4.0833 0.1845,3.6562 0.4062,-3.3438 l 0.25,-8.0625 0.1875,10.75 c 0.1581,9.1579 0.2148,9.9507 0.4375,5.5625 l 0.25,-5.125 0.25,5.125 0.2188,5.1562 0.0937,-5.0312 c 0.0526,-2.7649 0.2698,-5.0312 0.5,-5.0312 0.2302,0 0.4946,0.67 0.5938,1.4688 0.0991,0.7987 0.2563,-1.2758 0.3438,-4.5938 l 0.1562,-6.0312 0.2812,4.6875 c 0.1495,2.5806 0.3269,4.2405 0.375,3.6875 0.0481,-0.553 0.2855,-1 0.5312,-1 0.2458,0 0.4709,-1.1493 0.5,-2.5625 0.0435,-2.1147 0.0943,-2.3533 0.375,-1.25 0.2923,1.1489 0.3805,1.0125 0.4688,-1.0938 l 0.0937,-2.4688 0.5312,2.4688 c 0.4931,2.2063 0.5772,2.2972 0.7812,1.0938 0.1207,0.3449 0.2245,0.6352 0.3438,0.9688 v -20.125 c -0.1146,1.2857 -0.2294,2.532 -0.3438,3.875 -0.007,-0.0249 -0.024,-0.0568 -0.0313,-0.125 -0.1443,-1.3517 -0.473,-2.4688 -0.7188,-2.4688 -0.2458,0 -0.5745,1.117 -0.7188,2.4688 l -0.25,2.4688 -0.1562,-2.4688 -0.125,-2.4688 -0.3125,2.4688 -0.3125,2.4688 -0.0624,-2.3438 c -0.04,-1.2903 -0.2698,-2.3438 -0.5,-2.3438 -0.2302,0 -0.4946,-0.67 -0.5938,-1.4688 -0.0991,-0.7988 -0.237,0.7653 -0.3125,3.4688 -0.0719,2.5746 -0.1412,3.7258 -0.2188,3.8125 -0.0576,-0.1 -0.1338,-0.6575 -0.25,-1.5938 -0.183,-1.4746 -0.3483,-4.0286 -0.375,-5.6875 -0.0266,-1.6589 -0.2386,-3 -0.4688,-3 -0.2302,0 -0.4946,-0.67 -0.5938,-1.4688 -0.1309,-1.0546 -0.2389,-0.7847 -0.3438,1 l -0.125,2.4688 -0.3125,-2.4688 c -0.2138,-1.7446 -0.3571,-0.2363 -0.4688,5.1562 -0.1394,6.7323 -0.1691,7.1267 -0.4062,3.5625 l -0.2812,-4.0312 -0.2188,3.5938 -0.2188,3.5625 -0.1562,-4.6875 c -0.074,-2.5806 -0.2868,-5.1981 -0.4688,-5.8125 -0.2832,-0.956 -0.3831,-0.7595 -0.7812,1.3438 -0.4094,2.163 -0.489,1.463 -0.625,-5.8125 -0.1477,-7.9036 -0.1729,-7.7019 -0.4062,4.6875 l -0.25,12.969 -0.0937,-10.281 c -0.0585,-5.6527 -0.2227,-11.016 -0.375,-11.938 -0.3112,-1.8826 -1.0625,-2.2801 -1.0625,-0.5625 0,0.6951 -0.2392,1.0938 -0.6562,1.0938 -0.5748,0 -0.6999,1.5516 -0.7812,10.844 -0.0522,5.9599 -0.1398,8.6733 -0.2188,6.0312 -0.0805,-2.6933 -0.3517,-4.7812 -0.5938,-4.7812 -0.2375,0 -0.4375,0.4793 -0.4375,1.0938 0,0.6144 -0.1917,1.125 -0.4375,1.125 -0.2458,0 -0.4827,-1.1493 -0.5312,-2.5625 -0.0547,-1.5914 -0.2077,-0.7006 -0.375,2.3438 l -0.25,4.9062 -0.1562,-4.9062 c -0.1488,-4.4732 -0.1988,-4.6899 -0.4688,-2.25 l -0.3125,2.6875 -0.125,-3.5625 -0.1562,-3.5938 -0.3125,2.4688 c -0.2339,1.9089 -0.3436,1.0466 -0.4688,-3.8125 l -0.1562,-6.25 -0.25,4.9375 -0.2812,4.9062 -0.1562,-6.0312 c -0.1442,-5.3212 -0.2305,-4.4499 -0.6875,7.375 l -0.5312,13.406 -0.0937,-13.875 c -0.0566,-7.6189 -0.2654,-14.642 -0.4688,-15.625 l -0.375,-1.7812 -0.0937,2.2188 c -0.0574,1.2288 -0.2499,2.8564 -0.4375,3.5938 -0.3067,1.2053 -0.3831,1.1027 -0.5,-0.9062 l -0.125,-2.2188 -0.2812,2.9062 c -0.2707,2.6868 -0.2929,2.5035 -0.4375,-2.25 l -0.1562,-5.125 -0.3125,6.6875 c -0.1705,3.6866 -0.3865,10.422 -0.4688,14.969 l -0.1562,8.2812 -0.25,-6.0312 c -0.1998,-4.8154 -0.3055,-5.5152 -0.5,-3.375 l -0.2188,2.6875 -0.0937,-3.4688 c -0.0465,-1.9047 -0.2698,-3.4375 -0.5,-3.4375 -0.2302,0 -0.4946,-0.67 -0.5938,-1.4688 -0.0991,-0.7988 -0.2441,0.6694 -0.3125,3.25 -0.0685,2.5806 -0.2811,5.2939 -0.4688,6.0312 l -0.3438,1.3438 -0.0625,-1.625 c -0.029,-0.8873 -0.1907,-2.5795 -0.375,-3.7812 l -0.3438,-2.1875 -0.25,2.6562 c -0.1924,1.9842 -0.2881,1.2164 -0.3438,-3 -0.0455,-3.4503 -0.2606,-5.6875 -0.5312,-5.6875 -0.2458,0 -0.4375,0.3835 -0.4375,0.875 0,0.4915 -0.1917,0.9062 -0.4375,0.9062 -0.2747,0 -0.5008,2.7041 -0.5625,7.0312 -0.083,5.82 -0.1402,5.0139 -0.3438,-4.5938 l -0.25,-11.594 -0.1875,10.719 -0.1875,10.719 -0.25,-9.8438 -0.25,-9.8125 -0.1875,7.375 c -0.1631,6.6152 -0.2172,6.9703 -0.4688,3.5625 -0.23,-3.1163 -0.308,-2.2782 -0.4375,4.6875 l -0.1562,8.5 -0.375,-7.375 c -0.2089,-4.0552 -0.5506,-10.886 -0.75,-15.188 l -0.375,-7.8125 -0.1562,10.5 -0.1562,10.5 -0.25,-9.25 c -0.1402,-5.0793 -0.4094,-9.3782 -0.5938,-9.5625 -0.1843,-0.1843 -0.383,3.8593 -0.4375,9 l -0.0937,9.3438 -0.25,-10.281 c -0.1368,-5.6527 -0.2893,-8.9257 -0.3438,-7.2812 -0.0545,1.6444 -0.2855,3.1294 -0.5312,3.2812 -0.256,0.1582 -0.4688,2.4629 -0.4688,5.4062 0,5.9271 -0.8763,12.459 -1.375,10.219 l -0.2814,-1.3438 -0.0625,1.25 c -0.0332,0.7709 -0.2983,1.2188 -0.7188,1.2188 -0.4641,0 -0.7013,0.5271 -0.75,1.6875 -0.0701,1.6718 -0.1749,0.7947 -1.0312,-7.5938 -0.1944,-1.9047 -0.5403,-3.4688 -0.75,-3.4688 -0.2097,0 -0.4206,-0.447 -0.4688,-1 -0.0481,-0.553 -0.1942,1.1069 -0.3438,3.6875 -0.2447,4.2228 -0.2963,3.8709 -0.375,-3.4688 -0.0545,-5.0805 -0.2529,-8.1562 -0.5312,-8.1562 -0.2458,0 -0.465,0.6388 -0.4688,1.4375 -0.005,1.102 -0.1088,1.2899 -0.4375,0.7812 -0.3367,-0.5209 -0.4401,-0.3544 -0.5,0.6875 -0.0525,0.9125 -0.1664,0.6145 -0.375,-0.9062 l -0.3125,-2.2188 -0.1562,1.7812 c -0.1184,1.4198 -0.2079,1.1409 -0.4375,-1.3438 -0.1846,-1.9975 -0.3339,1.1567 -0.4375,8.7188 -0.1042,7.6112 -0.2728,10.473 -0.4375,8.0312 l -0.25,-3.7812 -0.3438,2.9062 c -0.1843,1.5975 -0.3911,3.8003 -0.4688,4.9062 -0.0776,1.106 -0.2067,-0.2028 -0.2812,-2.9062 -0.1336,-4.8507 -0.1281,-4.8793 -0.5625,-2.3438 -0.2421,1.4132 -0.5927,2.5625 -0.7812,2.5625 -0.1885,0 -0.5071,-2.1705 -0.7188,-4.8125 -0.3377,-4.2139 -0.4167,-4.4997 -0.5938,-2.3438 l -0.2188,2.4688 -0.2812,-2.4688 c -0.2429,-2.0761 -0.3184,-1.6834 -0.4375,2.4688 -0.0733,2.5543 -0.1496,3.7185 -0.2188,3.8438 -0.0564,-0.1509 -0.1316,-0.7907 -0.25,-1.8438 -0.1796,-1.5975 -0.3898,-4.215 -0.4688,-5.8125 -0.1029,-2.0829 -0.2167,-1.2595 -0.4062,2.9062 l -0.25,5.8125 -0.0937,-4.8125 c -0.0541,-2.8437 -0.2667,-4.7812 -0.5312,-4.7812 -0.2458,0 -0.4673,-1.1493 -0.5,-2.5625 -0.0582,-2.5126 -0.0737,-2.5133 -0.4375,0.9375 -0.5262,4.9907 -0.7769,5.1283 -0.9062,0.5 l -0.0937,-4.0312 -0.2812,2.9062 c -0.2092,2.2328 -0.3359,2.593 -0.5312,1.5625 -0.1398,-0.7373 -0.302,0.7944 -0.375,3.375 -0.1258,4.45 -0.1532,4.5429 -0.4688,2 -0.183,-1.4746 -0.4194,-5.2091 -0.5,-8.2812 -0.1294,-4.9326 -0.1535,-4.4743 -0.375,3.8125 l -0.25,9.375 -0.1875,-7.375 -0.1875,-7.375 -0.2812,5.8125 -0.25,5.8125 -0.1876,-9.1562 -0.1875,-9.1562 -0.25,7.375 -0.2812,7.375 -0.1562,-8.2812 c -0.1469,-7.4027 -0.2015,-7.87 -0.5,-4.4688 -0.1833,2.0891 -0.3882,8.441 -0.4688,14.094 l -0.1562,10.25 -0.25,-14.062 -0.2188,-14.062 -0.125,12.625 c -0.0562,6.943 -0.2551,12.625 -0.4688,12.625 -0.4456,0 -0.9198,-2.4431 -1.0312,-5.375 -0.0627,-1.6496 -0.1022,-1.7538 -0.25,-0.5625 -0.1448,1.1669 -0.3901,1.4688 -1.2188,1.4688 -0.8974,0 -1.0719,-0.3336 -1.4062,-2.375 -0.3701,-2.2597 -0.4095,-2.1444 -0.6562,2.375 l -0.25,4.6875 -0.1562,-6.0312 c -0.0798,-3.3179 -0.267,-9.0634 -0.4375,-12.75 l -0.3125,-6.6875 -0.1562,9.1562 c -0.1264,7.8048 -0.1848,8.5799 -0.4688,5.3438 -0.1833,-2.0891 -0.4063,-6.207 -0.4688,-9.1562 l -0.0937,-5.3438 -0.3438,3.7812 c -0.1833,2.0891 -0.3917,6.6217 -0.4688,10.062 l -0.125,6.25 -0.2812,-7.8125 c -0.2498,-7.6458 -0.2371,-7.5451 -0.4062,5.125 l -0.1875,12.969 -0.2812,-8.125 c -0.1486,-4.4717 -0.385,-8.2912 -0.5625,-8.4688 -0.1775,-0.1775 -0.3652,2.9007 -0.4062,6.8125 l -0.0937,7.0938 -0.25,-5.4375 c -0.3027,-6.124 -0.9375,-7.9342 -0.9375,-2.6875 0,3.9851 -0.836,4.7696 -0.9375,0.875 -0.0656,-2.5176 -0.1411,-2.3205 -0.6562,2.4375 -0.5035,4.6503 -1.0938,2.3034 -1.0938,-4.4062 0,-3.7275 -0.0819,-6.6681 -0.2188,-6.5312 -0.1369,0.1369 -0.4306,3.7335 -0.625,8 l -0.3438,7.75 -0.125,-7.1562 c -0.0696,-3.9323 -0.2464,-6.4227 -0.4062,-5.5625 l -0.3125,1.5625 -0.3125,-2.1875 c -0.1765,-1.2017 -0.3442,-3.021 -0.375,-4.0312 l -0.0625,-1.8438 -0.3438,2.0312 c -0.1968,1.106 -0.388,4.3622 -0.4062,7.25 -0.02,3.1804 -0.1981,5.25 -0.4688,5.25 -0.2458,0 -0.4827,-1.1493 -0.5312,-2.5625 -0.0547,-1.5914 -0.2077,-0.7006 -0.375,2.3438 l -0.25,4.9062 -0.1562,-7.1562 c -0.0849,-4.1293 -0.264,-6.4658 -0.4375,-5.5625 -0.2297,1.1958 -0.424,0.3355 -0.7812,-3.5938 l -0.4688,-5.125 -0.1562,3.7812 -0.1562,3.8125 -0.2812,-4.6875 -0.25,-4.6875 -0.1875,4.9062 -0.1562,4.9062 -0.2812,-4.0312 c -0.051,-0.7375 -0.1166,-1.1717 -0.1562,-1.3125 -0.096,0.2049 -0.1965,2.599 -0.25,7.5938 -0.1741,16.242 -0.8231,15.919 -0.9688,-0.4688 -0.1035,-11.653 -0.178,-13.24 -0.4375,-8.6875 -0.1752,3.0721 -0.5054,7.8924 -0.7188,10.719 -0.3661,4.8509 -0.3795,4.9684 -0.625,2.4375 l -0.2812,-2.6562 -0.0625,2.5625 c -0.1019,3.4871 -0.8338,3.2485 -1.0625,-0.3438 -0.2791,-4.383 -1.2561,-4.8723 -1.3125,-0.6562 -0.0828,6.1869 -0.7417,1.4609 -0.8438,-6.0312 -0.0592,-4.354 -0.2298,-6.6289 -0.4375,-5.8125 -0.2416,0.9494 -0.3943,0.0398 -0.5,-3.125 -0.1202,-3.5974 -0.2018,-2.8738 -0.4062,3.7812 l -0.25,8.2812 -0.1875,-11.844 c -0.1844,-11.473 -0.1867,-11.648 -0.4375,-4.9375 l -0.25,6.9375 -0.0937,-7.1875 c -0.0517,-3.9595 -0.25,-8.141 -0.4062,-9.2812 l -0.2812,-2.0625 h -0.3125 l -0.0937,14.844 -0.125,14.875 -0.2188,-12.531 -0.25,-12.5 -0.3438,9.8125 c -0.5216,14.868 -0.8623,20.344 -1.2812,20.344 -0.2089,0 -0.375,-1.5005 -0.375,-3.3438 0,-5.2014 -0.8727,-4.1036 -0.9688,1.2188 -0.0456,2.527 -0.1595,3.5444 -0.25,2.25 -0.0903,-1.2903 -0.361,-2.3438 -0.5939,-2.3438 -0.2329,0 -0.4353,-1.0847 -0.4688,-2.375 -0.0334,-1.2903 -0.1435,-1.8655 -0.25,-1.3125 -0.3553,1.8444 -1.0413,1.0319 -1.125,-1.3438 l -0.0937,-2.3438 -0.1562,2.3438 c -0.0902,1.2903 -0.3424,2.3438 -0.5625,2.3438 -0.2201,0 -0.4722,-1.0534 -0.5625,-2.3438 -0.131,-1.8718 -0.1895,-1.593 -0.3125,1.4375 -0.0848,2.0891 -0.2446,3.1425 -0.3438,2.3438 -0.0991,-0.7988 -0.3452,-1.4375 -0.5625,-1.4375 -0.2174,0 -0.4722,-1.0534 -0.5625,-2.3438 -0.1073,-1.5338 -0.2203,-0.7966 -0.3125,2.125 -0.3525,11.167 -0.7733,11.04 -0.9375,-0.25 -0.1589,-10.927 -0.1883,-11.115 -0.4375,-4.6875 -0.1963,5.0614 -0.2956,5.9557 -0.4375,3.5938 -0.1343,-2.2348 -0.2532,-1.1081 -0.4375,4 l -0.25,7.1562 -0.2188,-7.1562 -0.1875,-7.125 -0.25,9.5938 -0.25,9.5938 -0.1563,-12.062 c -0.0906,-6.7688 -0.2892,-11.284 -0.4688,-10.281 -0.2373,1.3253 -0.3826,0.4664 -0.5,-3.3438 l -0.1562,-5.125 -0.2188,7.375 -0.25,7.375 -0.4375,-8.2812 -0.4688,-8.25 -0.2188,16.75 -0.25,16.75 -0.1875,-13.625 c -0.1403,-9.9259 -0.2554,-12.242 -0.4375,-8.5 -0.157,3.2269 -0.337,4.5758 -0.5,3.5938 -0.1755,-1.0577 -0.3181,-0.3499 -0.4062,2.2188 -0.1019,2.9684 -0.1802,3.4723 -0.4375,2.25 -0.2352,-1.1172 -0.3677,-0.1675 -0.4688,3.3438 -0.0822,2.8565 -0.2171,3.9258 -0.3125,2.5625 -0.1171,-1.6742 -0.3508,-2.3438 -0.8125,-2.3438 -0.3902,0 -0.6748,-0.4776 -0.7188,-1.2188 -0.04,-0.6759 -0.2094,-0.133 -0.375,1.2188 l -0.3125,2.4688 -0.0937,-2.0312 c -0.0542,-1.106 -0.2654,-2.7982 -0.4688,-3.7812 -0.3658,-1.7683 -0.3554,-1.7607 -0.4062,0.7812 -0.0282,1.4132 -0.2304,2.5625 -0.4375,2.5625 -0.2071,0 -0.5008,-3.673 -0.6562,-8.1562 -0.1705,-4.9164 -0.4738,-8.2204 -0.75,-8.3125 -0.2519,-0.084 -0.4688,-0.5505 -0.4688,-1.0625 0,-0.512 -0.1407,-0.7967 -0.3125,-0.625 -0.1717,0.1718 -0.4395,5.3959 -0.5938,11.594 l -0.25,11.25 -0.1562,-12.5 c -0.146,-14.486 -0.6805,-21.712 -0.9062,-12.062 -0.0949,4.0566 -0.2183,5.1227 -0.4062,3.5625 -0.2279,-1.8917 -0.3241,-1.415 -0.6562,3.125 -0.2157,2.9493 -0.5522,8.7906 -0.7188,12.969 -0.1447,3.6299 -0.2268,5.3629 -0.2812,5.5312 -0.0329,-0.2068 -0.0666,-1.167 -0.0937,-2.75 -0.0678,-3.9353 -0.2009,-4.7812 -0.75,-4.7812 -0.504,0 -0.679,0.5798 -0.7188,2.3438 -0.0452,2.0053 -0.1147,2.1459 -0.4062,1 l -0.3438,-1.3438 -0.0937,1.3438 -0.0937,1.3438 -0.3438,-1.3438 c -0.2957,-1.1621 -0.3539,-1.0056 -0.4688,1.125 -0.112,2.0764 -0.1906,1.774 -0.4688,-1.8125 -0.5303,-6.8368 -1.2054,-12.185 -1.6875,-13.625 -0.3547,-1.0594 -0.4635,-0.1641 -0.5312,4.25 -0.0471,3.0721 -0.2254,7.3818 -0.4062,9.5938 -0.2988,3.656 -0.3251,3.312 -0.4375,-4 -0.1457,-9.476 -0.7648,-8.5951 -0.9375,1.3438 l -0.125,6.6875 -0.3438,-4.625 c -0.1952,-2.5445 -0.4457,-4.7269 -0.5625,-4.8438 -0.1168,-0.1168 -0.3407,1.1655 -0.5,2.8438 -0.501,5.2789 -0.5951,4.6732 -0.75,-6.0938 l -0.125,-10.5 -0.25,10.5 c -0.1366,5.7756 -0.3194,8.3931 -0.375,5.8125 -0.2791,-12.956 -0.9718,-19.269 -1.5312,-13.656 -0.1013,1.0161 -0.2386,0.3124 -0.2812,-1.6562 -0.0426,-1.9608 -0.247,-3.4688 -0.5,-3.4688 -0.2869,0 -0.5013,5.2301 -0.5625,14.625 -0.0801,12.313 -0.1281,13.423 -0.3438,7.0312 -0.1943,-5.7598 -0.2983,-6.7105 -0.4375,-4 l -0.1875,3.5625 -0.25,-4.9062 -0.2812,-4.9062 -0.1875,4.9062 -0.1562,4.9062 -0.2812,-3.5625 -0.2812,-3.5938 -0.1563,4.7188 -0.1875,4.6875 -0.2812,-4.6875 -0.25,-4.7188 -0.1875,3.5938 -0.1875,3.5625 -0.1562,-3.4688 c -0.1172,-2.6664 -0.2796,-3.4375 -0.7812,-3.4375 -0.4839,0 -0.6562,-0.5905 -0.6562,-2.25 0,-1.2289 -0.1917,-2.2188 -0.4375,-2.2188 -0.2755,0 -0.4908,2.6112 -0.5312,6.8125 -0.0931,9.6604 -0.6746,4.2924 -0.8438,-7.7188 -0.0871,-6.1832 -0.2315,-8.0747 -0.4062,-5.8125 -0.0923,1.1943 -0.1612,1.9349 -0.2188,2.0625 -0.0853,-0.1132 -0.1692,-1.6248 -0.3438,-4.9688 -0.1796,-3.4408 -0.5067,-7.4629 -0.7188,-8.9375 -0.3544,-2.4652 -0.3955,-2.2162 -0.5312,3.125 -0.1389,5.4638 -0.1681,5.6124 -0.4062,2.25 -0.2135,-3.0137 -0.3123,-2.2513 -0.5938,4.9062 -0.1836,4.6696 -0.3591,10.607 -0.4062,13.188 l -0.0937,4.6875 -0.2812,-4.0312 -0.2812,-4 -0.125,4.4688 c -0.2756,9.2633 -0.7899,10.273 -0.9062,1.7812 -0.0661,-4.8202 -0.2543,-7.607 -0.4688,-6.9375 l -0.375,1.125 -0.0313,-1.0938 c -0.0245,-0.5939 -0.1777,-0.9473 -0.3438,-0.7812 -0.1661,0.1661 -0.5516,3.7939 -0.8438,8.0312 l -0.5312,7.6875 -0.1562,-5.8125 -0.125,-5.8125 -0.2812,4.7188 -0.2812,4.6875 -0.1875,-4.6875 c -0.18,-4.643 -0.1822,-4.6376 -0.4375,2.4375 l -0.25,7.1562 -0.0937,-7.0312 c -0.0534,-3.9757 -0.2651,-7.0312 -0.5,-7.0312 -0.2287,0 -0.5062,0.447 -0.5938,1 -0.1329,0.8397 -0.9186,-7.7145 -1.4062,-15.312 -0.062,0.6872 -0.1529,4.3966 -0.1875,9.5 -0.046,6.7716 -0.2545,11.5 -0.5,11.5 -0.2294,0 -0.4914,0.5429 -0.5938,1.2188 -0.1024,0.6759 -0.2619,-0.8569 -0.3438,-3.4375 l -0.1562,-4.7188 -0.2812,3.5938 c -0.2455,3.1017 -0.3137,2.5848 -0.4688,-3.8125 l -0.1562,-7.375 -0.25,8.5 c -0.2053,6.88 -0.2918,7.6146 -0.4062,3.8125 -0.095,-3.1553 -0.2594,-4.345 -0.5,-3.5938 -0.2263,0.7066 -0.3927,-1.0907 -0.4688,-4.9062 l -0.125,-6.0312 -0.3125,5.8125 c -0.1761,3.195 -0.3888,6.0042 -0.4688,6.25 -0.0799,0.2458 -0.2643,-2.7864 -0.4062,-6.7188 -0.2577,-7.1424 -0.275,-7.1376 -0.4688,4.4688 l -0.1875,11.625 -0.25,-10.719 -0.25,-10.719 -0.1562,8.25 c -0.0838,4.5468 -0.2811,8.8877 -0.4688,9.625 l -0.3438,1.3438 -0.125,-1.3438 -0.0937,-1.3438 -0.3438,1.3438 -0.3438,1.3438 -0.125,-1.3438 c -0.0865,-0.9222 -0.2303,-0.5658 -0.4375,1.125 -0.3003,2.4505 -0.3024,2.4217 -0.375,-1.0312 -0.0753,-3.581 -0.7539,-4.7314 -1.0625,-1.7812 -0.0964,0.9216 -0.2505,-0.1318 -0.3438,-2.3438 -0.1462,-3.4689 -0.215,-3.0418 -0.4375,3.125 l -0.25,7.1562 -0.1562,-9.375 c -0.0904,-5.5399 -0.3056,-8.7671 -0.5,-7.8438 -0.2329,1.1063 -0.3607,0.0726 -0.4688,-3.5625 l -0.1562,-5.125 -0.25,6.9062 -0.2812,6.9375 -0.0937,-6.8125 c -0.054,-3.9155 -0.2573,-6.8125 -0.5,-6.8125 -0.2323,0 -0.4876,0.9576 -0.5625,2.125 -0.1356,2.1138 -0.1397,2.0913 -0.875,-1.4688 l -0.75,-3.5625 -0.0625,3.3438 c -0.0634,2.4063 -0.2119,3.0521 -0.4688,2.25 -0.2087,-0.6518 -0.3803,2.3808 -0.4062,7.3125 -0.0245,4.6492 -0.195,8.305 -0.375,8.125 -0.18,-0.18 -0.4475,-3.4578 -0.5938,-7.3125 l -0.25,-7.0312 -0.1562,8.5 c -0.1162,6.3273 -0.2221,7.7061 -0.4375,5.375 -0.2521,-2.728 -0.3226,-2.8787 -0.4375,-1.125 -0.1237,1.8872 -0.1486,1.9144 -0.4688,0.6562 -0.293,-1.1513 -0.3446,-0.9857 -0.4375,1.125 -0.0855,1.9411 -0.2398,1.2976 -0.7188,-3.0938 -0.3335,-3.058 -0.6877,-5.7714 -0.7812,-6.0312 -0.003,-0.008 -0.028,0.004 -0.0313,0 -0.1119,0.2456 -0.3223,2.072 -0.5,4.4375 -0.503,6.6964 -0.9664,4.4186 -1.1562,-5.8125 l -0.125,-8.0312 -0.2812,8.25 -0.25,8.2812 -0.1875,-9.625 c -0.1517,-7.6742 -0.219,-8.6944 -0.4062,-5.125 -0.083,1.5825 -0.166,2.5215 -0.2188,2.7188 -0.0743,-0.2057 -0.1546,-2.047 -0.2812,-6.0625 -0.2089,-6.6225 -0.2817,-5.3439 -0.4375,8.4688 -0.1159,10.272 -0.2477,14.502 -0.4062,11.406 -0.1617,-3.1586 -0.365,-4.3488 -0.5312,-3.3438 -0.2307,1.3946 -0.2645,1.2853 -0.4062,-0.9062 -0.1227,-1.8972 -0.2276,-1.3719 -0.4375,2.25 l -0.2812,4.6875 -0.125,-6.0312 c -0.0761,-3.3179 -0.2926,-8.6487 -0.4688,-11.844 l -0.3126,-5.8125 -0.1562,8.4688 -0.125,8.5 -0.4062,-6.4688 c -0.2105,-3.5637 -0.5444,-8.3839 -0.75,-10.719 -0.3367,-3.824 -0.3868,-3.2268 -0.5312,6.0312 l -0.1562,10.281 -0.25,-6.7188 -0.2812,-6.6875 -0.1875,10.5 -0.1875,10.5 -0.2188,-6.9375 -0.25,-6.9375 -0.375,4.25 c -0.1993,2.3348 -0.483,5.4629 -0.6562,6.9375 l -0.3125,2.6875 -0.3438,-1.8125 c -0.1776,-0.9831 -0.3098,-2.6117 -0.3125,-3.6562 -0.003,-1.0445 -0.223,-1.9062 -0.4688,-1.9062 -0.2643,0 -0.4754,1.9396 -0.5312,4.7812 -0.0863,4.3879 -0.1081,4.1871 -0.3438,-2.3438 -0.218,-6.0415 -0.3109,-6.5533 -0.4688,-3.3438 -0.0654,1.3293 -0.1125,2.13 -0.1562,2.3125 -0.062,-0.2216 -0.1529,-1.7162 -0.2812,-4.7812 l -0.25,-6.25 -0.1562,7.1562 c -0.2331,11.468 -0.7326,10.749 -1.0938,-1.5625 -0.6155,-20.986 -0.9885,-22.464 -1.1875,-4.6875 l -0.1875,16.094 -0.25,-10.5 -0.25,-10.5 -0.2188,9.1562 c -0.183,7.4309 -0.2298,5.89 -0.3125,-8.1562 l -0.125,-17.312 h -0.375 l -0.3125,8.1562 c -0.1745,4.4853 -0.377,8.2414 -0.4688,8.3438 -0.0918,0.1024 -0.2069,-2.0358 -0.25,-4.7188 l -0.0937,-4.875 -0.3125,5.375 c -0.1727,2.9493 -0.4772,9.7805 -0.6875,15.188 -0.2103,5.407 -0.4757,9.2373 -0.5938,8.5 -0.1624,-1.0141 -0.2911,-0.6845 -0.5,1.3438 -0.2754,2.6742 -0.2688,2.6721 -0.3438,-1.0312 -0.0441,-2.1803 -0.2538,-3.6209 -0.5,-3.4688 -0.2306,0.1425 -0.497,-0.4795 -0.5938,-1.4062 -0.0967,-0.9268 -0.2421,0.5153 -0.3125,3.2188 -0.154,5.9139 -0.7336,4.5102 -0.9375,-2.25 l -0.1251,-4.4688 -0.2812,3.5938 c -0.1025,1.2951 -0.1982,2.0874 -0.25,2.2812 -0.0651,-0.1334 -0.1127,-1.5147 -0.1875,-4.5312 l -0.125,-5.8125 -0.375,4.7188 c -0.5421,6.7787 -0.7181,7.3563 -0.875,3.3438 l -0.125,-3.5938 -0.3125,2.4688 c -0.2657,2.1686 -0.309,1.9214 -0.4375,-2.2188 -0.1285,-4.1401 -0.1717,-4.4186 -0.4375,-2.25 -0.2565,2.0931 -0.3447,2.2382 -0.4688,0.9062 -0.1241,-1.332 -0.181,-1.2181 -0.4375,0.875 l -0.2812,2.4688 -0.0937,-2.4375 c -0.1109,-3.6841 -0.5418,-2.439 -0.9375,2.7188 l -0.3438,4.625 -0.125,-7.375 c -0.1283,-7.9136 -0.7114,-7.3402 -0.9375,0.9062 l -0.125,4.25 -0.2812,-3.8125 -0.2812,-3.7812 -0.1562,5.3438 c -0.171,5.2368 -0.1983,5.2873 -0.3438,1.4688 -0.0819,-2.1505 -0.3359,-3.9062 -0.5625,-3.9062 -0.2266,0 -0.4806,-1.787 -0.5625,-3.9375 -0.0138,-0.3629 -0.0479,-0.5697 -0.0625,-0.625 -0.0659,0.3708 -0.1366,3.5512 -0.1875,8.3438 -0.0678,6.39 -0.32,12.008 -0.5312,12.5 -0.2267,0.5276 -0.3877,-4.4111 -0.4062,-12.094 -0.0173,-7.1581 -0.1589,-13.67 -0.3125,-14.438 -0.323,-1.6151 -1.0283,-1.8527 -1.0938,-0.375 -0.0427,0.9646 -0.063,0.9467 -0.4062,-0.125 -0.231,-0.7213 -0.4128,0.8622 -0.5,4.4688 l -0.125,5.5938 -0.25,-5.5938 -0.25,-5.5625 -0.375,8.9375 c -0.2113,4.9154 -0.536,10.119 -0.7188,11.594 l -0.3438,2.6875 -0.125,-2.2188 c -0.0652,-1.2289 -0.2499,-2.8564 -0.4375,-3.5938 -0.2943,-1.1566 -0.3654,-0.9954 -0.4688,1.125 -0.0692,1.4188 -0.205,1.9281 -0.3125,1.2188 -0.1246,-0.8223 -0.4558,-1.2188 -1,-1.2188 -0.6412,0 -0.903,-0.5369 -1.25,-2.5625 -0.3178,-1.8548 -0.4586,-2.1734 -0.5,-1.125 -0.0315,0.7988 -0.2543,1.4688 -0.5001,1.4688 -0.2749,0 -0.4375,-2.2552 -0.4375,-5.8125 0,-3.3732 -0.2081,-5.8701 -0.4688,-6.0312 -0.2458,-0.1519 -0.4654,-1.2221 -0.5,-2.375 l -0.0625,-2.0938 -0.4062,2.4375 c -0.2261,1.3518 -0.5662,6.395 -0.75,11.188 -0.2167,5.6496 -0.3759,7.4428 -0.4688,5.125 -0.0788,-1.9662 -0.2983,-6.5947 -0.4688,-10.281 l -0.3125,-6.6875 -0.1562,6.0312 -0.1875,6.0312 -0.25,-6.9375 c -0.1204,-3.22 -0.2051,-4.8952 -0.25,-5.1875 -0.0325,0.1447 -0.0577,1.1835 -0.0938,3 -0.0517,2.605 -0.2614,6.3394 -0.4375,8.2812 -0.2661,2.9342 -0.3517,3.2686 -0.5938,1.9688 -0.1602,-0.8602 -0.3371,1.7573 -0.4062,5.8125 -0.1342,7.8657 -0.2339,7.8902 -0.6875,0.3125 -0.3279,-5.4778 -1.0938,-6.4805 -1.0938,-1.4375 0,3.6518 -0.8806,4.7562 -0.9688,1.2188 -0.0291,-1.1674 -0.2004,-2.7314 -0.375,-3.4688 -0.2775,-1.1719 -0.3414,-1 -0.625,1.3438 -0.5474,4.5229 -0.5934,4.5829 -0.6562,0.8438 -0.0903,-5.3675 -0.5979,-10.438 -1.0312,-10.438 -0.2097,0 -0.423,1.6599 -0.4688,3.6875 l -0.0625,3.6875 -0.2812,-3.8125 c -0.1247,-1.6898 -0.2246,-2.564 -0.2812,-2.75 -0.0418,0.0576 -0.0788,0.5179 -0.125,1.4062 -0.1024,1.9688 -0.2134,2.2386 -0.5,1.3438 -0.2569,-0.8021 -0.4046,-0.098 -0.5,2.4688 l -0.125,3.5625 -0.2812,-4.9062 c -0.255,-4.6399 -0.2589,-4.4519 -0.4062,3.5625 l -0.1562,8.5 -0.375,-9.1562 c -0.1978,-5.0383 -0.5236,-10.88 -0.7188,-12.969 -0.3062,-3.2785 -0.3589,-2.3452 -0.5625,6.7188 l -0.25,10.5 -0.0938,-10.469 c -0.0546,-5.7551 -0.2489,-10.345 -0.4062,-10.188 -0.1574,0.1573 -0.4224,4.3604 -0.5938,9.3438 -0.3054,8.8807 -0.2949,8.9437 -0.4375,3.25 -0.1159,-4.6263 -0.2289,-5.301 -0.4688,-3.3438 -0.2407,1.964 -0.3167,1.2985 -0.4375,-3.3438 l -0.1562,-5.8125 -0.3438,6.25 c -0.1948,3.4408 -0.6273,8.5799 -0.9688,11.406 l -0.625,5.125 -0.1562,-3.5625 -0.125,-3.5938 -0.3125,2.4688 c -0.2174,1.7737 -0.3324,2.0925 -0.4375,1.125 -0.1051,-0.9675 -0.2201,-0.6488 -0.4375,1.125 -0.242,1.9746 -0.3399,1.2923 -0.4688,-3.375 l -0.1562,-5.8125 -0.2812,4.7188 -0.2812,4.6875 -0.1562,-6.0312 c -0.148,-5.1009 -0.2295,-5.5512 -0.4375,-2.9062 -0.1615,2.0534 -0.3123,-0.2651 -0.4688,-6.7188 l -0.25,-9.8125 -0.1562,11.156 c -0.1525,9.7529 -0.226,10.541 -0.5,6.25 -0.1726,-2.7035 -0.3853,-7.332 -0.4688,-10.281 l -0.1562,-5.3438 -0.25,7.375 -0.25,7.375 -0.125,-7.375 c -0.1905,-10.537 -0.9366,-7.4295 -1.375,5.8125 -0.1912,5.7756 -0.3996,9.383 -0.4688,8.0312 -0.1086,-2.1251 -0.1738,-2.2842 -0.4688,-1.125 -0.2556,1.0046 -0.3523,0.4602 -0.4375,-2.2188 -0.0625,-1.9662 -0.206,-3.1155 -0.3125,-2.5625 -0.1065,0.553 -0.3963,1 -0.625,1 -0.2287,0 -0.4397,2.1392 -0.4688,4.7812 -0.0631,5.7344 -0.692,4.2879 -0.8125,-1.875 -0.157,-8.0315 -0.8128,-8.0315 -0.9688,0 -0.067,3.4522 -0.1188,5.2118 -0.1562,5.5312 -0.0307,-0.2047 -0.0736,-1.2786 -0.125,-3.1875 -0.1302,-4.829 -0.2116,-5.25 -1,-5.25 -0.727,0 -0.8633,0.3835 -1,2.5625 -0.1444,2.3012 -0.1743,2.1954 -0.25,-0.9062 -0.0465,-1.9047 -0.295,-3.4375 -0.5312,-3.4375 -0.2362,0 -0.4806,-1.787 -0.5625,-3.9375 -0.1055,-2.7705 -0.2149,-1.7556 -0.3438,3.4688 -0.1113,4.5117 -0.2193,6.0254 -0.3125,3.9062 -0.1732,-3.9389 -0.9098,-4.6162 -1.1562,-1.0938 -0.1448,2.07 -0.1458,1.9655 -0.2188,-0.8438 -0.0455,-1.7511 -0.2532,-3.858 -0.4375,-4.6875 -0.2857,-1.2856 -0.3767,-1.0131 -0.5938,1.8438 -0.1617,2.1286 -0.2614,0.0285 -0.3125,-5.7188 -0.0505,-5.681 -0.2507,-9.0312 -0.5312,-9.0312 -0.2783,0 -0.4757,3.0768 -0.5312,8.1562 -0.085,7.7785 -0.1188,7.9015 -0.375,3 l -0.25,-5.125 -0.1875,3.7812 -0.1562,3.8125 -0.2812,-2.6875 -0.3125,-2.6875 -0.1562,2.6875 c -0.0943,1.4746 -0.2978,-1.047 -0.4375,-5.5938 l -0.25,-8.25 -0.1562,11.375 c -0.2284,17.132 -0.7541,20.174 -0.9375,5.375 -0.0915,-7.3862 -0.2513,-10.867 -0.4062,-8.7188 l -0.2812,3.5938 -0.375,-4.375 c -0.211,-2.3963 -0.5647,-4.3438 -0.7812,-4.3438 -0.2165,0 -0.4244,5.5861 -0.4688,12.406 -0.0443,6.8201 -0.158,11.417 -0.25,10.25 -0.1378,-1.7474 -0.3157,-2.0938 -1.0312,-2.0938 -0.7861,0 -0.8851,-0.3533 -0.9375,-3.6875 l -0.0625,-3.6875 -0.3438,3.125 c -0.2031,1.7204 -0.5806,3.9232 -0.8125,4.9062 l -0.4062,1.7812 -0.125,-2.6875 -0.125,-2.6562 -0.2812,2.6562 c -0.2699,2.4399 -0.32,2.2545 -0.4688,-2.2188 l -0.1562,-4.9062 -0.2812,4.9062 c -0.1269,2.3091 -0.2025,3.495 -0.25,3.6875 -0.0374,-0.0448 -0.0887,-0.8265 -0.125,-2.25 -0.0699,-2.7412 -0.2195,-3.4375 -0.75,-3.4375 -0.5646,0 -0.6749,-1.1642 -0.75,-7.2812 l -0.0938,-7.25 -0.2812,5.125 c -0.2275,4.3519 -0.2655,4.7098 -0.4062,2.25 l -0.1875,-2.9062 -0.2812,2.9062 c -0.2102,2.0867 -0.3296,0.5057 -0.4375,-5.5938 -0.147,-8.3093 -0.1813,-8.1924 -0.5,5.2812 -0.1791,7.5719 -0.4071,13.876 -0.5312,14 -0.1242,0.1242 -0.3656,-2.1589 -0.5312,-5.0625 -0.1656,-2.9035 -0.3437,-5.4786 -0.4062,-5.7188 -0.0625,-0.2401 -0.5525,1.675 -1.0625,4.25 l -0.9062,4.6875 -0.0938,-3.375 c -0.0531,-1.8433 -0.2579,-4.6525 -0.4375,-6.25 -0.2652,-2.3591 -0.3525,-1.5196 -0.4688,4.4688 l -0.1562,7.375 -0.3125,-4.6875 c -0.1744,-2.5806 -0.3661,-5.9004 -0.4375,-7.375 -0.1184,-2.4439 -0.1485,-2.5355 -0.375,-0.9062 -0.1993,1.4337 -0.2887,1.0466 -0.5,-2 -0.2539,-3.6612 -0.2693,-3.5648 -0.4062,2.25 -0.0947,4.0231 -0.2804,5.5118 -0.5,4.4688 -0.1947,-0.9252 -0.3754,2.2614 -0.4688,7.8125 l -0.1562,9.375 -0.25,-10.281 c -0.2147,-8.8686 -0.2683,-9.4814 -0.4062,-4.4688 -0.1772,6.4381 -0.3238,6.3042 -0.75,-0.7812 -0.3124,-5.194 -0.9277,-6.359 -1.1875,-2.2188 -0.0887,1.4132 -0.2542,-3.3748 -0.3438,-10.625 -0.1355,-10.976 -0.2123,-12.277 -0.4688,-7.8125 -0.1694,2.9493 -0.3826,9.0782 -0.4688,13.625 l -0.1562,8.2812 -0.25,-8.0625 c -0.1229,-3.8789 -0.1948,-5.8428 -0.25,-6.2188 -0.0425,0.1974 -0.09,1.33 -0.1562,3.3125 l -0.1875,5.1562 -0.3125,-5.8125 c -0.1761,-3.195 -0.347,-8.5894 -0.375,-11.969 l -0.0625,-6.125 h -0.5 z" />
  </g>
  <metadata
     id="metadata21">
    <rdf:RDF>
      <cc:Work>
        <dc:format>image/svg+xml</dc:format>
        <dc:type
           rdf:resource="http://purl.org/dc/dcmitype/StillImage" />
        <cc:license
           rdf:resource="http://creativecommons.org/licenses/publicdomain/" />
        <dc:publisher>
          <cc:Agent
             rdf:about="http://openclipart.org/">
            <dc:title>Openclipart</dc:title>
          </cc:Agent>
        </dc:publisher>
        <dc:title></dc:title>
        <dc:date>2012-02-18T06:03:18</dc:date>
        <dc:description>Black variant of business card. Font name is Comfortaa (licensed under the SIL Open Font License).</dc:description>
        <dc:source>https://openclipart.org/detail/168380/black-businesscard-for-recording-studio-by-boobaloo</dc:source>
        <dc:creator>
          <cc:Agent>
            <dc:title>boobaloo</dc:title>
          </cc:Agent>
        </dc:creator>
        <dc:subject>
          <rdf:Bag>
            <rdf:li>businesscard</rdf:li>
            <rdf:li>card</rdf:li>
            <rdf:li>sound</rdf:li>
            <rdf:li>studio</rdf:li>
            <rdf:li>vcard</rdf:li>
            <rdf:li>wave</rdf:li>
            <rdf:li>waveform</rdf:li>
          </rdf:Bag>
        </dc:subject>
      </cc:Work>
      <cc:License
         rdf:about="http://creativecommons.org/licenses/publicdomain/">
        <cc:permits
           rdf:resource="http://creativecommons.org/ns#Reproduction" />
        <cc:permits
           rdf:resource="http://creativecommons.org/ns#Distribution" />
        <cc:permits
           rdf:resource="http://creativecommons.org/ns#DerivativeWorks" />
      </cc:License>
    </rdf:RDF>
  </metadata>
</svg>
